<?xml version="1.0" encoding="UTF-8"?>
<svg width="174" height="200" version="1.1" viewbox="0 0 173.20508075688772 200" xmlns="http://www.w3.org/2000/svg" xmlns:cc="http://creativecommons.org/ns#" xmlns:dc="http://purl.org/dc/elements/1.1/" xmlns:rdf="http://www.w3.org/1999/02/22-rdf-syntax-ns#">
 <metadata>
  <rdf:RDF>
   <cc:Work rdf:about="">
    <dc:format>image/svg+xml</dc:format>
    <dc:type rdf:resource="http://purl.org/dc/dcmitype/StillImage"/>
    <dc:title/>
   </cc:Work>
  </rdf:RDF>
 </metadata>
 <path d="m86.604 2.5c-2.8868 0-5.7754 0.83333-8.6621 2.5l-69.281 40c-5.7735 3.3333-8.6602 8.3333-8.6602 15v80c-1.1842e-15 6.6667 2.8867 11.667 8.6602 15l8.2969 4.791 0.041016-0.05664c-4.5454-3.2908-6.8281-7.8877-6.8281-13.803v-80c0-6.6667 2.8867-11.667 8.6602-15l69.281-40c5.7735-3.3333 11.547-3.3333 17.32 0l0.11719 0.068359 0.02344-0.048828-10.309-5.9512c-2.8868-1.6667-5.7734-2.5-8.6602-2.5z" fill="#fff"/>
 <path d="m152.38 37.979-0.03125 0.052734 0.32813 0.18945c5.7735 3.3333 8.6602 8.3333 8.6602 15v80c0 6.6667-2.8866 11.667-8.6602 15l-69.281 40c-5.3161 3.0693-10.633 3.3056-15.949 0.72266l10.492 6.0566c5.7735 3.3333 11.549 3.3333 17.322 0l69.281-40c5.7735-3.3333 8.6602-8.3333 8.6602-15v-80c0-6.6667-2.8867-11.667-8.6602-15l-12.162-7.0215zm-84.934 150.96-2.1133-1.2207-0.03125 0.05273 0.77344 0.44531c0.45738 0.26407 0.91372 0.50043 1.3711 0.72266z"/>
</svg>
